<?xml version="1.0" encoding="utf-8"?>
<!-- Generator: Adobe Illustrator 26.3.1, SVG Export Plug-In . SVG Version: 6.00 Build 0)  -->
<svg version="1.1" id="Livello_1" xmlns="http://www.w3.org/2000/svg" xmlns:xlink="http://www.w3.org/1999/xlink" x="0px" y="0px"
	 viewBox="0 0 841.89 153.78" style="enable-background:new 0 0 841.89 153.78;" xml:space="preserve">
<style type="text/css">
	.st0{fill:#486BAB;}
	.st1{fill:#FBBE59;}
</style>
<g>
	<path class="st0" d="M306.72,37.58h-26.9l-2.48,12.3h23.23l-2.66,13.41h-23.23l-2.57,12.85h27.46l-2.66,13.41H254.1l13.13-65.38
		h42.15L306.72,37.58z"/>
	<path class="st0" d="M342.8,89.55l-0.92-10.28h-19.37l-5.05,10.28h-16.25l35.63-65.38h11.85l9.64,65.38H342.8z M338.67,47.59
		l-9.92,19.28h11.94L338.67,47.59z"/>
	<path class="st0" d="M406.71,41.16c-2.75-3.4-6.34-4.22-10.65-4.22c-6.24,0-9.82,3.86-9.82,7.16c0,3.49,2.94,4.23,5.6,4.96
		l4.96,1.29c11.48,2.94,15.24,8.26,15.24,17.63c0,15.79-13.13,22.13-27.09,22.13c-10.93,0-17.45-2.48-23.14-9l11.02-9.64
		c3.21,3.67,7.81,5.14,13.5,5.14c5.97,0,10.38-3.3,10.38-7.07c0-3.49-1.93-4.68-5.51-5.6l-4.96-1.29
		C373.01,59.25,371,51.63,371,46.58c0-14.33,11.11-22.96,26.81-22.96c8.17,0,15.43,2.85,19.56,8.17L406.71,41.16z"/>
	<path class="st0" d="M449.05,63.38l-5.23,26.17h-15.24l5.33-26.63l-12.3-38.75h16.35l5.97,24.43l14.78-24.43h16.8L449.05,63.38z"/>
	<path class="st0" d="M530.77,41.16c-2.75-3.4-6.34-4.22-10.65-4.22c-6.25,0-9.83,3.86-9.83,7.16c0,3.49,2.94,4.23,5.6,4.96
		l4.96,1.29c11.48,2.94,15.24,8.26,15.24,17.63c0,15.79-13.13,22.13-27.09,22.13c-10.93,0-17.45-2.48-23.14-9l11.02-9.64
		c3.21,3.67,7.81,5.14,13.5,5.14c5.97,0,10.38-3.3,10.38-7.07c0-3.49-1.93-4.68-5.51-5.6l-4.96-1.29
		c-13.22-3.4-15.24-11.02-15.24-16.07c0-14.33,11.11-22.96,26.81-22.96c8.17,0,15.43,2.85,19.56,8.17L530.77,41.16z"/>
	<path class="st0" d="M593.12,37.58h-26.9l-2.48,12.3h23.23l-2.66,13.41h-23.23l-2.57,12.85h27.46l-2.66,13.41H540.5l13.13-65.38
		h42.15L593.12,37.58z"/>
	<path class="st0" d="M642.52,89.55h-12.67l-13.87-33.98l-6.89,33.98h-15.24l13.13-65.38h12.67l13.96,34.07l6.8-34.07h15.24
		L642.52,89.55z"/>
	<path class="st0" d="M707.9,56.86c-3.21,16.34-4.59,20.48-10.1,25.99c-4.41,4.41-10.65,6.7-18.64,6.7H655.1l13.13-65.38h21.94
		c12.03,0,19.83,6.61,19.83,18.55C710.01,45.39,709.55,48.23,707.9,56.86z M687.61,37.58h-6.8l-7.71,38.57h6.7
		c3.4,0,5.79-1.1,7.62-2.94c1.93-1.93,2.94-4.41,5.23-16.34c1.47-7.53,1.93-11.11,1.93-12.67
		C694.59,39.23,691.28,37.58,687.61,37.58z"/>
	<path class="st0" d="M764.47,37.58h-26.9l-2.48,12.3h23.23l-2.66,13.41h-23.23l-2.57,12.85h27.46l-2.66,13.41h-42.79l13.13-65.38
		h42.15L764.47,37.58z"/>
	<path class="st0" d="M806.15,62.83l8.72,26.72h-16.71l-6.89-24.79h-5.78l-5.05,24.79H765.2l13.13-65.38h23.23
		c13.68,0,18.73,8.82,18.73,18.92C820.29,50.34,815.89,58.79,806.15,62.83z M798.99,37.76h-8.08l-2.94,14.32h7.99
		c7.25,0,9-5.51,9-8.17C804.96,39.87,802.76,37.76,798.99,37.76z"/>
</g>
<path class="st1" d="M259.63,129.46h-8.15l-2.69,13.34h-3.22l6.4-31.87h10.83c5.91,0,8.1,3.8,8.1,7.7
	C270.91,124.67,266.74,129.46,259.63,129.46z M262.36,113.79h-7.74l-2.55,12.85h7.7c4.65,0,7.88-3.31,7.88-7.88
	C267.64,116.16,266.25,113.79,262.36,113.79z"/>
<path class="st1" d="M287.15,124.8c-0.58-0.76-1.52-1.57-3.13-1.57c-3.13,0-5.73,2.64-6.4,6.04l-2.69,13.52h-3.13l4.39-22.07h3.09
	l-0.54,2.68c1.34-1.83,3.54-2.95,6.18-2.95c2.1,0,3.63,0.72,4.79,2.06L287.15,124.8z"/>
<path class="st1" d="M307.97,127.94l-2.95,14.86h-3.09l0.49-2.19c-1.66,1.66-3.54,2.46-6.31,2.46c-3.49,0-6.62-1.43-6.62-5.37
	c0-1.84,0.54-3.76,1.97-5.15c1.79-1.75,3.98-2.33,6.49-2.33h6.45l0.49-2.33c0.09-0.4,0.18-0.94,0.18-1.48c0-2.15-1.7-3.27-4.43-3.27
	c-2.73,0-4.34,0.85-5.95,2.64l-1.83-2.15c1.97-2.15,4.25-3.18,7.97-3.18c3.13,0,7.39,0.98,7.39,5.73
	C308.19,126.64,308.06,127.4,307.97,127.94z M298.25,132.55c-3.36,0-5.68,1.74-5.68,4.97c0,1.88,1.3,2.91,4.39,2.91
	c1.92,0,3.54-0.58,4.7-1.75c0.89-0.85,1.52-2.1,1.79-3.58l0.49-2.55H298.25z"/>
<path class="st1" d="M324.17,123.28h-4.3l-2.73,13.52c-0.13,0.63-0.18,0.94-0.18,1.43c0,1.16,0.58,1.88,2.46,1.88h1.79l-0.58,2.69
	h-2.24c-1.97,0-4.57-0.94-4.57-4.21c0-0.67,0.09-1.25,0.18-1.79l2.69-13.52h-2.73l0.45-2.37h2.78l1.39-6.89h3.13l-1.39,6.89h4.34
	L324.17,123.28z"/>
<path class="st1" d="M329.68,142.8h-3.13l4.39-22.07h3.13L329.68,142.8z M335.45,114.46h-3.54l0.63-3.27h3.58L335.45,114.46z"/>
<path class="st1" d="M353.49,125.7c-1.16-1.74-2.37-2.46-4.34-2.46c-1.7,0-3.4,0.63-4.88,2.15c-1.61,1.7-2.46,4.16-2.86,6.36
	c-0.22,1.16-0.36,2.15-0.36,3.31c0,3.72,2.33,5.24,4.79,5.24c2.1,0,3.63-0.76,5.33-2.55l1.84,2.24c-2.1,2.1-4.66,3.09-7.34,3.09
	c-5.19,0-7.74-3.49-7.74-7.92c0-0.9,0.09-2.24,0.31-3.4c1.34-7.34,5.55-11.28,11.24-11.28c3.09,0,4.92,1.25,6.36,3.27L353.49,125.7z
	"/>
<path class="st1" d="M375.96,131.74c-0.94,4.83-2.37,7.3-4.16,8.91c-1.84,1.66-4.07,2.42-6.31,2.42c-2.51,0-7.12-1.25-7.12-7.34
	c0-1.34,0.22-2.95,0.4-3.98c0.94-4.83,2.37-7.3,4.16-8.91c1.83-1.66,4.07-2.37,6.31-2.37c2.51,0,7.12,1.21,7.12,7.3
	C376.37,129.1,376.14,130.71,375.96,131.74z M369.03,123.24c-1.52,0-3.09,0.67-4.12,1.7c-1.34,1.34-2.24,3.18-2.95,6.8
	c-0.31,1.61-0.49,3-0.49,3.89c0,3.4,2.1,4.66,4.25,4.66c1.52,0,3.09-0.72,4.12-1.75c1.34-1.34,2.24-3.18,2.95-6.8
	c0.31-1.61,0.49-2.95,0.49-3.85C373.28,124.49,371.17,123.24,369.03,123.24z"/>
<path class="st1" d="M383.44,145.66l-4.52,3.58l2.1-10.43h3.76L383.44,145.66z"/>
<path class="st1" d="M409.22,142.8h-2.82l-3.27-22.07h3.18l2.24,17.77l9.18-17.77h3.49L409.22,142.8z"/>
<path class="st1" d="M439.57,132.55h-14.19c-0.18,0.94-0.27,1.79-0.27,2.77c0,2.91,1.43,5.01,4.74,5.01c2.6,0,4.3-0.9,6.18-2.6
	l1.88,2.1c-2.33,2.19-4.97,3.22-8.33,3.22c-4.34,0-7.52-2.51-7.52-7.61c0-6.62,3.04-15,10.88-15c4.7,0,7.16,3.36,7.16,7.56
	C440.11,129.14,439.93,130.85,439.57,132.55z M432.81,123.1c-3.22,0-5.73,2.24-7.03,7.16h11.1c0.09-0.72,0.18-1.34,0.18-2.24
	C437.06,124.62,435.09,123.1,432.81,123.1z"/>
<path class="st1" d="M448.34,136.8c-0.13,0.63-0.18,0.94-0.18,1.48c0,1.12,0.54,1.83,2.42,1.83h1.84l-0.54,2.69h-2.33
	c-1.97,0-4.52-0.94-4.52-4.21c0-0.63,0.04-1.21,0.18-1.79l5.19-25.87h3.13L448.34,136.8z"/>
<path class="st1" d="M474.62,131.74c-0.94,4.83-2.37,7.3-4.16,8.91c-1.84,1.66-4.07,2.42-6.31,2.42c-2.51,0-7.12-1.25-7.12-7.34
	c0-1.34,0.22-2.95,0.4-3.98c0.94-4.83,2.37-7.3,4.16-8.91c1.84-1.66,4.07-2.37,6.31-2.37c2.51,0,7.12,1.21,7.12,7.3
	C475.02,129.1,474.8,130.71,474.62,131.74z M467.68,123.24c-1.52,0-3.09,0.67-4.12,1.7c-1.34,1.34-2.24,3.18-2.95,6.8
	c-0.31,1.61-0.49,3-0.49,3.89c0,3.4,2.1,4.66,4.25,4.66c1.52,0,3.09-0.72,4.12-1.75c1.34-1.34,2.24-3.18,2.95-6.8
	c0.31-1.61,0.49-2.95,0.49-3.85C471.93,124.49,469.83,123.24,467.68,123.24z"/>
<path class="st1" d="M495.08,125.7c-1.16-1.74-2.37-2.46-4.34-2.46c-1.7,0-3.4,0.63-4.88,2.15c-1.61,1.7-2.46,4.16-2.86,6.36
	c-0.22,1.16-0.36,2.15-0.36,3.31c0,3.72,2.33,5.24,4.79,5.24c2.1,0,3.62-0.76,5.33-2.55l1.84,2.24c-2.1,2.1-4.66,3.09-7.34,3.09
	c-5.19,0-7.74-3.49-7.74-7.92c0-0.9,0.09-2.24,0.31-3.4c1.34-7.34,5.55-11.28,11.23-11.28c3.09,0,4.93,1.25,6.36,3.27L495.08,125.7z
	"/>
<path class="st1" d="M517.46,132.55h-14.19c-0.18,0.94-0.27,1.79-0.27,2.77c0,2.91,1.43,5.01,4.74,5.01c2.6,0,4.3-0.9,6.18-2.6
	l1.88,2.1c-2.33,2.19-4.97,3.22-8.33,3.22c-4.34,0-7.52-2.51-7.52-7.61c0-6.62,3.04-15,10.88-15c4.7,0,7.16,3.36,7.16,7.56
	C517.99,129.14,517.82,130.85,517.46,132.55z M510.7,123.1c-3.22,0-5.73,2.24-7.03,7.16h11.1c0.09-0.72,0.18-1.34,0.18-2.24
	C514.95,124.62,512.98,123.1,510.7,123.1z"/>
<path class="st1" d="M525.2,145.66l-4.52,3.58l2.1-10.43h3.76L525.2,145.66z"/>
<path class="st1" d="M557.97,113.52h-1.61c-1.75,0-3.04,0.9-3.49,3.13l-0.85,4.25h4.56l-0.49,2.37h-4.56l-3.9,19.52h-3.13
	l3.89-19.52h-2.64l0.45-2.37h2.64l0.9-4.43c0.9-4.48,3.8-5.64,6.4-5.64h2.37L557.97,113.52z"/>
<path class="st1" d="M575.2,127.94l-2.95,14.86h-3.09l0.49-2.19c-1.66,1.66-3.54,2.46-6.31,2.46c-3.49,0-6.62-1.43-6.62-5.37
	c0-1.84,0.54-3.76,1.97-5.15c1.79-1.75,3.99-2.33,6.49-2.33h6.45l0.49-2.33c0.09-0.4,0.18-0.94,0.18-1.48c0-2.15-1.7-3.27-4.43-3.27
	c-2.73,0-4.34,0.85-5.95,2.64l-1.84-2.15c1.97-2.15,4.25-3.18,7.97-3.18c3.13,0,7.39,0.98,7.39,5.73
	C575.43,126.64,575.29,127.4,575.2,127.94z M565.49,132.55c-3.36,0-5.68,1.74-5.68,4.97c0,1.88,1.3,2.91,4.39,2.91
	c1.92,0,3.54-0.58,4.7-1.75c0.9-0.85,1.52-2.1,1.79-3.58l0.49-2.55H565.49z"/>
<path class="st1" d="M595.84,125.7c-1.16-1.74-2.37-2.46-4.34-2.46c-1.7,0-3.4,0.63-4.88,2.15c-1.61,1.7-2.46,4.16-2.86,6.36
	c-0.22,1.16-0.36,2.15-0.36,3.31c0,3.72,2.33,5.24,4.79,5.24c2.1,0,3.63-0.76,5.33-2.55l1.84,2.24c-2.1,2.1-4.65,3.09-7.34,3.09
	c-5.19,0-7.74-3.49-7.74-7.92c0-0.9,0.09-2.24,0.31-3.4c1.34-7.34,5.55-11.28,11.24-11.28c3.09,0,4.92,1.25,6.36,3.27L595.84,125.7z
	"/>
<path class="st1" d="M603.67,142.8h-3.13l4.39-22.07h3.13L603.67,142.8z M609.44,114.46h-3.54l0.63-3.27h3.58L609.44,114.46z"/>
<path class="st1" d="M615.53,136.8c-0.13,0.63-0.18,0.94-0.18,1.48c0,1.12,0.54,1.83,2.42,1.83h1.84l-0.54,2.69h-2.33
	c-1.97,0-4.52-0.94-4.52-4.21c0-0.63,0.04-1.21,0.18-1.79l5.19-25.87h3.13L615.53,136.8z"/>
<path class="st1" d="M641.72,132.55h-14.19c-0.18,0.94-0.27,1.79-0.27,2.77c0,2.91,1.43,5.01,4.74,5.01c2.6,0,4.3-0.9,6.18-2.6
	l1.88,2.1c-2.33,2.19-4.97,3.22-8.33,3.22c-4.34,0-7.52-2.51-7.52-7.61c0-6.62,3.04-15,10.88-15c4.7,0,7.16,3.36,7.16,7.56
	C642.25,129.14,642.08,130.85,641.72,132.55z M634.96,123.1c-3.22,0-5.73,2.24-7.03,7.16h11.1c0.09-0.72,0.18-1.34,0.18-2.24
	C639.21,124.62,637.24,123.1,634.96,123.1z"/>
<path class="st1" d="M650.22,142.8h-4.07l0.85-4.25h4.03L650.22,142.8z"/>
<path class="st1" d="M236.79,24.22l-15.4,23.1h-79.6c-6.58,0-12.25-2.52-16.43-6.46c-1.02-0.96-1.95-2.02-2.78-3.14
	c-0.17-0.24-0.34-0.48-0.52-0.72c-4.25-5.67-11-9.55-19.16-9.55H26.35c-12.76,0-23.1-10.34-23.1-23.1v0h107.37
	c6.58,0,12.25,2.52,16.43,6.46c1.02,0.96,1.95,2.02,2.78,3.14c0.17,0.24,0.34,0.48,0.52,0.72c4.25,5.67,11,9.55,19.16,9.55H236.79z
	 M134.11,71.25c-8.16,0-14.91-3.88-19.16-9.55c-0.18-0.24-0.35-0.48-0.52-0.72c-0.83-1.12-1.76-2.18-2.78-3.14
	c-4.18-3.95-9.85-6.46-16.43-6.46H17.09v0c0,12.76,10.34,23.1,23.1,23.1H87.5c8.16,0,14.91,3.88,19.16,9.55
	c0.18,0.24,0.35,0.48,0.52,0.72c0.83,1.12,1.76,2.18,2.78,3.14c4.18,3.95,9.85,6.46,16.43,6.46h37.82l15.4-23.1H134.11z
	 M118.44,118.28c-8.16,0-14.91-3.88-19.16-9.55c-0.18-0.24-0.35-0.48-0.52-0.72c-0.83-1.12-1.76-2.18-2.78-3.14
	c-4.18-3.95-9.85-6.46-16.43-6.46H30.92v0c0,12.76,10.34,23.1,23.1,23.1h17.81c8.16,0,14.91,3.88,19.16,9.55
	c0.18,0.24,0.35,0.48,0.52,0.72c0.83,1.12,1.76,2.18,2.78,3.14c4.18,3.95,9.85,6.46,16.43,6.46h79.6l15.4-23.1H118.44z"/>
</svg>
